<?xml version="1.0" encoding="UTF-8" standalone="no"?>
<svg
   width="32"
   height="32"
   version="1.1"
   id="svg12"
   sodipodi:docname="start.svg"
   inkscape:version="1.2.1 (9c6d41e410, 2022-07-14, custom)"
   xml:space="preserve"
   xmlns:inkscape="http://www.inkscape.org/namespaces/inkscape"
   xmlns:sodipodi="http://sodipodi.sourceforge.net/DTD/sodipodi-0.dtd"
   xmlns="http://www.w3.org/2000/svg"
   xmlns:svg="http://www.w3.org/2000/svg"
   xmlns:rdf="http://www.w3.org/1999/02/22-rdf-syntax-ns#"
   xmlns:cc="http://creativecommons.org/ns#"
   xmlns:dc="http://purl.org/dc/elements/1.1/"><metadata
     id="metadata16"><rdf:RDF><cc:Work
         rdf:about=""><dc:format>image/svg+xml</dc:format><dc:type
           rdf:resource="http://purl.org/dc/dcmitype/StillImage" /><dc:title /></cc:Work></rdf:RDF></metadata><sodipodi:namedview
     pagecolor="#c8c8c8"
     bordercolor="#666666"
     borderopacity="1"
     objecttolerance="10"
     gridtolerance="10"
     guidetolerance="10"
     inkscape:pageopacity="0"
     inkscape:pageshadow="2"
     inkscape:window-width="1920"
     inkscape:window-height="1005"
     id="namedview14"
     showgrid="false"
     inkscape:zoom="8.0000004"
     inkscape:cx="47.749998"
     inkscape:cy="15.187499"
     inkscape:window-x="0"
     inkscape:window-y="0"
     inkscape:window-maximized="1"
     inkscape:current-layer="svg12"
     inkscape:snap-bbox="true"
     inkscape:bbox-nodes="true"
     inkscape:snap-bbox-edge-midpoints="true"
     inkscape:snap-nodes="true"
     inkscape:document-rotation="0"
     inkscape:object-paths="true"
     inkscape:snap-intersection-paths="true"
     inkscape:snap-smooth-nodes="true"
     inkscape:snap-midpoints="true"
     inkscape:pagecheckerboard="0"
     inkscape:showpageshadow="0"
     inkscape:deskcolor="#c8c8c8"><inkscape:grid
       type="xygrid"
       id="grid4539" /></sodipodi:namedview><defs
     id="defs7386"><style
       id="current-color-scheme"
       type="text/css">
   .ColorScheme-Text { color:#dedede; } .ColorScheme-Highlight { color:#5294e2; } .ColorScheme-ButtonBackground { color:#dedede; }
  </style><linearGradient
       id="linearGradient8660"
       x1="-7.6728001"
       x2="-5.027"
       y1="-29.104"
       y2="-27.252001"
       gradientTransform="matrix(3.3620413,0,0,3.3620413,56.979969,79.985673)"
       gradientUnits="userSpaceOnUse"><stop
         stop-color="#00bffb"
         offset="0"
         id="stop17" /><stop
         stop-color="#01a0f3"
         offset="1"
         id="stop19" /></linearGradient><linearGradient
       id="linearGradient8668"
       x1="-4.7624002"
       x2="-1.852"
       y1="-27.252001"
       y2="-30.122999"
       gradientTransform="matrix(3.5258028,0,0,3.3620413,57.757906,79.985673)"
       gradientUnits="userSpaceOnUse"><stop
         stop-color="#11c2f4"
         offset="0"
         id="stop12" /><stop
         stop-color="#2dc5f4"
         offset="1"
         id="stop14" /></linearGradient><linearGradient
       id="linearGradient8676"
       x1="-7.6728001"
       x2="-5.027"
       y1="-26.722"
       y2="-24.493"
       gradientTransform="matrix(3.3620413,0,0,3.3620413,56.979969,79.985673)"
       gradientUnits="userSpaceOnUse"><stop
         stop-color="#0954a8"
         offset="0"
         id="stop7" /><stop
         stop-color="#0954a8"
         offset="1"
         id="stop9" /></linearGradient><linearGradient
       id="linearGradient8684"
       x1="-4.4977999"
       x2="-1.852"
       y1="-26.722"
       y2="-24.111"
       gradientTransform="matrix(3.5258028,0,0,3.3620413,57.757906,79.985673)"
       gradientUnits="userSpaceOnUse"><stop
         stop-color="#339ed9"
         offset="0"
         id="stop2" /><stop
         stop-color="#2386c9"
         offset="1"
         id="stop4" /></linearGradient></defs><g
     id="start-here-kde"><rect
       style="color:#bebebe;display:inline;overflow:visible;visibility:visible;fill:none;stroke:none;stroke-width:1;marker:none"
       id="rect6336-6"
       width="32"
       height="32"
       x="0"
       y="0" /><g
       id="g5469"
       transform="translate(54.571678)"><circle
         style="opacity:0.8;fill:#181d21;fill-rule:evenodd;stroke-width:12.5631;stroke-linecap:round;stroke-linejoin:round;paint-order:stroke fill markers"
         id="circle5429"
         cx="-38.571678"
         cy="16"
         r="15" /><path
         id="path5459"
         style="color:#000000;fill:#ffffff;stroke-width:0.15"
         d="m -39.175781,5.8300781 -0.05469,0.060547 -12.6875,14.048828 -1.220703,-0.515625 a 15,15 0 0 0 0.0918,0.425781 l 5.724609,2.414063 4.371094,-0.179688 0.767578,-1.416015 0.06445,-0.07422 -0.01563,-0.01758 1.429688,-2.644531 -0.03711,-3.498047 0.19336,-0.410156 v -0.0039 l 1.365234,-2.910156 0.25,-4.4375 13.587891,16.326172 a 15,15 0 0 0 0.347656,-0.638672 l -0.234375,0.21875 -0.236328,-0.287109 0.800781,-0.757813 a 15,15 0 0 0 0.283203,-0.755859 l -1.3125,1.240234 -0.320312,-0.386719 1.923828,-1.800781 a 15,15 0 0 0 0.132812,-0.609375 l -2.285156,2.136719 -0.314453,-0.378906 2.802735,-2.689454 a 15,15 0 0 0 0.0625,-0.558593 l -3.095704,2.970703 -0.341796,-0.408203 3.480468,-3.183594 a 15,15 0 0 0 0.03711,-0.513672 l -3.746094,3.421875 -0.238281,-0.287109 4.023437,-3.931641 a 15,15 0 0 0 -0.01172,-0.484375 l -4.238281,4.144531 -11.289062,-13.5644528 z m -0.103516,0.671875 -0.04492,0.7851563 -11.75,13.0078126 -0.49414,-0.207031 z m -0.07422,1.3515625 -0.04297,0.7109375 -10.876954,12.0683589 -0.457031,-0.189453 z m -0.07617,1.28125 -0.03711,0.6621094 -10.037109,11.160156 -0.423828,-0.179687 z m -0.06836,1.2304684 -0.03711,0.628907 -9.183594,10.294921 -0.441406,-0.1875 z m -0.544922,1.736328 -0.814453,1.736329 -7.035156,7.798828 -0.482422,-0.203125 z m 4.783203,2.324219 -0.128906,0.140625 -0.18164,0.199219 -2.105469,2.330078 0.353515,3.90625 3.935547,-2.601562 -1.861328,-1.533203 z m -5.835937,0.210938 0.0078,0.666015 -5.917968,6.589844 -0.251953,0.01172 -0.283204,-0.119141 z m 5.484375,0.710937 0.002,0.5 -1.666016,1.72461 -0.0332,-0.357422 z m -5.470703,0.486328 0.0039,0.710938 -4.882813,5.30664 -0.544921,0.02148 z m 5.472656,0.525391 0.002,0.519531 -1.582031,1.638672 -0.04297,-0.478516 z m -5.462891,0.703125 0.0059,0.548828 -3.761719,4.19336 -0.626953,0.02344 z m 5.658204,0.130859 0.375,0.308594 -2.035157,2.263672 -0.07031,-0.777344 z m 0.65039,0.535157 0.341797,0.283203 -1.126953,1.392578 -1.470703,0.972656 L -37.03125,20.25 Z m 0.621094,0.511718 0.158203,0.13086 -0.568359,0.375 z m -7.333984,0.367188 -1,1.845703 -1.230469,1.306641 -0.621094,0.02539 z m -1.658204,3.066406 -0.0332,0.0625 h -0.02539 z" /></g></g><g
     id="22-22-start-here-kde"
     transform="translate(-0.98225397)"><circle
       r="11"
       cy="21"
       cx="48.805481"
       id="path822"
       style="opacity:0;fill:#ffffff;fill-opacity:1;stroke:none;stroke-width:1.24874;stroke-linecap:round;stroke-linejoin:round;stroke-miterlimit:4;stroke-dasharray:none;stroke-opacity:1;paint-order:normal" /><g
       id="g8048"
       transform="matrix(0.6,0,0,0.6,71.948487,11.4)"><circle
         style="opacity:0.8;fill:#181d21;fill-rule:evenodd;stroke-width:12.5631;stroke-linecap:round;stroke-linejoin:round;paint-order:stroke fill markers"
         id="circle8044"
         cx="-38.571678"
         cy="16"
         r="15" /><path
         id="path8046"
         style="color:#000000;fill:#ffffff;stroke-width:0.15"
         d="m -39.175781,5.8300781 -0.05469,0.060547 -12.6875,14.0488279 -1.220703,-0.515625 a 15,15 0 0 0 0.0918,0.425781 l 5.724609,2.414063 4.371094,-0.179688 0.767578,-1.416015 0.06445,-0.07422 -0.01563,-0.01758 1.429688,-2.644531 -0.03711,-3.498047 0.19336,-0.410156 v -0.0039 l 1.365234,-2.910156 0.25,-4.4374999 13.587891,16.3261719 a 15,15 0 0 0 0.347656,-0.638672 l -0.234375,0.21875 -0.236328,-0.287109 0.800781,-0.757813 a 15,15 0 0 0 0.283203,-0.755859 l -1.3125,1.240234 -0.320312,-0.386719 1.923828,-1.800781 a 15,15 0 0 0 0.132812,-0.609375 l -2.285156,2.136719 -0.314453,-0.378906 2.802735,-2.689454 a 15,15 0 0 0 0.0625,-0.558593 l -3.095704,2.970703 -0.341796,-0.408203 3.480468,-3.183594 a 15,15 0 0 0 0.03711,-0.513672 l -3.746094,3.421875 -0.238281,-0.287109 4.023437,-3.931641 a 15,15 0 0 0 -0.01172,-0.484375 L -27.82618,19.458988 -39.115242,5.8945353 Z m -0.103516,0.671875 -0.04492,0.7851563 -11.75,13.0078126 -0.49414,-0.207031 z m -0.07422,1.3515625 -0.04297,0.7109375 -10.876954,12.0683589 -0.457031,-0.189453 z m -0.07617,1.28125 -0.03711,0.6621094 -10.037109,11.160156 -0.423828,-0.179687 z m -0.06836,1.2304684 -0.03711,0.628907 -9.183594,10.294921 -0.441406,-0.1875 z m -0.544922,1.736328 -0.814453,1.736329 -7.035156,7.798828 -0.482422,-0.203125 z m 4.783203,2.324219 -0.128906,0.140625 -0.18164,0.199219 -2.105469,2.330078 0.353515,3.90625 3.935547,-2.601562 -1.861328,-1.533203 z m -5.835937,0.210938 0.0078,0.666015 -5.917968,6.589844 -0.251953,0.01172 -0.283204,-0.119141 z m 5.484375,0.710937 0.002,0.5 -1.666016,1.72461 -0.0332,-0.357422 z m -5.470703,0.486328 0.0039,0.710938 -4.882813,5.30664 -0.544921,0.02148 z m 5.472656,0.525391 0.002,0.519531 -1.582031,1.638672 -0.04297,-0.478516 z m -5.462891,0.703125 0.0059,0.548828 -3.761719,4.19336 -0.626953,0.02344 z m 5.658204,0.130859 0.375,0.308594 -2.035157,2.263672 -0.07031,-0.777344 z m 0.65039,0.535157 0.341797,0.283203 -1.126953,1.392578 -1.470703,0.972656 L -37.03125,20.25 Z m 0.621094,0.511718 0.158203,0.13086 -0.568359,0.375 z m -7.333984,0.367188 -1,1.845703 -1.230469,1.306641 -0.621094,0.02539 z m -1.658204,3.066406 -0.0332,0.0625 h -0.02539 z" /></g></g></svg>
